<mxfile host="65bd71144e">
    <diagram id="kAt_RZjUbVZYDaUgvY-5" name="Page-1">
        <mxGraphModel dx="796" dy="432" grid="1" gridSize="10" guides="1" tooltips="1" connect="1" arrows="1" fold="1" page="1" pageScale="1" pageWidth="850" pageHeight="1100" background="#030303" math="0" shadow="0">
            <root>
                <mxCell id="0"/>
                <mxCell id="1" parent="0"/>
                <mxCell id="2" value="1xx" style="rounded=1;whiteSpace=wrap;html=1;" parent="1" vertex="1">
                    <mxGeometry x="80" y="200" width="90" height="30" as="geometry"/>
                </mxCell>
                <mxCell id="3" value="Status Codes:" style="text;html=1;align=center;verticalAlign=middle;resizable=0;points=[];autosize=1;strokeColor=none;fillColor=none;" parent="1" vertex="1">
                    <mxGeometry x="75" y="170" width="100" height="30" as="geometry"/>
                </mxCell>
                <mxCell id="4" value="2xx" style="rounded=1;whiteSpace=wrap;html=1;fillColor=#60a917;fontColor=#ffffff;strokeColor=#2D7600;" parent="1" vertex="1">
                    <mxGeometry x="80" y="240" width="90" height="30" as="geometry"/>
                </mxCell>
                <mxCell id="5" value="3xx" style="rounded=1;whiteSpace=wrap;html=1;" parent="1" vertex="1">
                    <mxGeometry x="80" y="280" width="90" height="30" as="geometry"/>
                </mxCell>
                <mxCell id="6" value="4xx" style="rounded=1;whiteSpace=wrap;html=1;fillColor=#60a917;fontColor=#ffffff;strokeColor=#2D7600;" parent="1" vertex="1">
                    <mxGeometry x="80" y="320" width="90" height="30" as="geometry"/>
                </mxCell>
                <mxCell id="7" value="5xx" style="rounded=1;whiteSpace=wrap;html=1;fillColor=#60a917;fontColor=#ffffff;strokeColor=#2D7600;" parent="1" vertex="1">
                    <mxGeometry x="80" y="360" width="90" height="30" as="geometry"/>
                </mxCell>
                <mxCell id="9" value="" style="endArrow=classic;html=1;" parent="1" edge="1">
                    <mxGeometry width="50" height="50" relative="1" as="geometry">
                        <mxPoint x="180" y="220" as="sourcePoint"/>
                        <mxPoint x="320" y="220" as="targetPoint"/>
                    </mxGeometry>
                </mxCell>
                <mxCell id="10" value="" style="endArrow=classic;html=1;" parent="1" edge="1">
                    <mxGeometry width="50" height="50" relative="1" as="geometry">
                        <mxPoint x="180" y="254.5" as="sourcePoint"/>
                        <mxPoint x="320" y="254.5" as="targetPoint"/>
                    </mxGeometry>
                </mxCell>
                <mxCell id="11" value="" style="endArrow=classic;html=1;" parent="1" edge="1">
                    <mxGeometry width="50" height="50" relative="1" as="geometry">
                        <mxPoint x="180" y="296.5" as="sourcePoint"/>
                        <mxPoint x="320" y="296.5" as="targetPoint"/>
                    </mxGeometry>
                </mxCell>
                <mxCell id="12" value="" style="endArrow=classic;html=1;" parent="1" edge="1">
                    <mxGeometry width="50" height="50" relative="1" as="geometry">
                        <mxPoint x="180" y="337" as="sourcePoint"/>
                        <mxPoint x="320" y="337" as="targetPoint"/>
                    </mxGeometry>
                </mxCell>
                <mxCell id="13" value="" style="endArrow=classic;html=1;" parent="1" edge="1">
                    <mxGeometry width="50" height="50" relative="1" as="geometry">
                        <mxPoint x="180" y="374.5" as="sourcePoint"/>
                        <mxPoint x="320" y="374.5" as="targetPoint"/>
                    </mxGeometry>
                </mxCell>
                <mxCell id="14" value="Information Response: Request Processing" style="rounded=1;whiteSpace=wrap;html=1;" parent="1" vertex="1">
                    <mxGeometry x="325" y="201" width="490" height="30" as="geometry"/>
                </mxCell>
                <mxCell id="15" value="Redirection: Further Action Must be Complete" style="rounded=1;whiteSpace=wrap;html=1;" parent="1" vertex="1">
                    <mxGeometry x="325" y="281" width="490" height="30" as="geometry"/>
                </mxCell>
                <mxCell id="16" value="Success: Request Successfully Complete" style="rounded=1;whiteSpace=wrap;html=1;fillColor=#60a917;fontColor=#ffffff;strokeColor=#2D7600;" parent="1" vertex="1">
                    <mxGeometry x="325" y="241" width="490" height="30" as="geometry"/>
                </mxCell>
                <mxCell id="17" value="Client Errors: An error was caused by the client" style="rounded=1;whiteSpace=wrap;html=1;fillColor=#60a917;fontColor=#ffffff;strokeColor=#2D7600;" parent="1" vertex="1">
                    <mxGeometry x="325" y="320" width="490" height="30" as="geometry"/>
                </mxCell>
                <mxCell id="18" value="Server Errors: An error occured on the server" style="rounded=1;whiteSpace=wrap;html=1;fillColor=#60a917;fontColor=#ffffff;strokeColor=#2D7600;" parent="1" vertex="1">
                    <mxGeometry x="325" y="360" width="490" height="30" as="geometry"/>
                </mxCell>
                <mxCell id="19" value="2xx Successful Status Codes:" style="text;html=1;align=center;verticalAlign=middle;resizable=0;points=[];autosize=1;strokeColor=none;fillColor=none;" parent="1" vertex="1">
                    <mxGeometry x="70" y="420" width="180" height="30" as="geometry"/>
                </mxCell>
                <mxCell id="20" value="200: OK" style="rounded=1;whiteSpace=wrap;html=1;" parent="1" vertex="1">
                    <mxGeometry x="80" y="450" width="120" height="30" as="geometry"/>
                </mxCell>
                <mxCell id="21" value="201: Created" style="rounded=1;whiteSpace=wrap;html=1;" parent="1" vertex="1">
                    <mxGeometry x="80" y="520" width="120" height="30" as="geometry"/>
                </mxCell>
                <mxCell id="22" value="204: No Content" style="rounded=1;whiteSpace=wrap;html=1;" parent="1" vertex="1">
                    <mxGeometry x="80" y="590" width="120" height="30" as="geometry"/>
                </mxCell>
                <mxCell id="23" value="" style="endArrow=classic;html=1;" parent="1" edge="1">
                    <mxGeometry width="50" height="50" relative="1" as="geometry">
                        <mxPoint x="210" y="464.5" as="sourcePoint"/>
                        <mxPoint x="320" y="465" as="targetPoint"/>
                    </mxGeometry>
                </mxCell>
                <mxCell id="24" value="" style="endArrow=classic;html=1;" parent="1" edge="1">
                    <mxGeometry width="50" height="50" relative="1" as="geometry">
                        <mxPoint x="210" y="538" as="sourcePoint"/>
                        <mxPoint x="320" y="538.5" as="targetPoint"/>
                    </mxGeometry>
                </mxCell>
                <mxCell id="25" value="" style="endArrow=classic;html=1;" parent="1" edge="1">
                    <mxGeometry width="50" height="50" relative="1" as="geometry">
                        <mxPoint x="210" y="604.5" as="sourcePoint"/>
                        <mxPoint x="320" y="605" as="targetPoint"/>
                    </mxGeometry>
                </mxCell>
                <mxCell id="27" value="Standard Response for a Successful Request. Commonly used for successful Get Requests when data is being returned." style="rounded=1;whiteSpace=wrap;html=1;" parent="1" vertex="1">
                    <mxGeometry x="325" y="440" width="490" height="50" as="geometry"/>
                </mxCell>
                <mxCell id="28" value="The request has been successful, creating a new resource. Used when a Post creates an entity." style="rounded=1;whiteSpace=wrap;html=1;" parent="1" vertex="1">
                    <mxGeometry x="325" y="510" width="490" height="50" as="geometry"/>
                </mxCell>
                <mxCell id="29" value="The Request has been successful, did not create an entity nor return anything. Commonly used with PUT requests." style="rounded=1;whiteSpace=wrap;html=1;" parent="1" vertex="1">
                    <mxGeometry x="325" y="580" width="490" height="50" as="geometry"/>
                </mxCell>
                <mxCell id="39" value="400: Bad Request" style="rounded=1;whiteSpace=wrap;html=1;" parent="1" vertex="1">
                    <mxGeometry x="80" y="710" width="120" height="30" as="geometry"/>
                </mxCell>
                <mxCell id="40" value="401: unauthorized" style="rounded=1;whiteSpace=wrap;html=1;" parent="1" vertex="1">
                    <mxGeometry x="80" y="780" width="120" height="30" as="geometry"/>
                </mxCell>
                <mxCell id="41" value="404: Not Found" style="rounded=1;whiteSpace=wrap;html=1;" parent="1" vertex="1">
                    <mxGeometry x="80" y="850" width="120" height="30" as="geometry"/>
                </mxCell>
                <mxCell id="42" value="" style="endArrow=classic;html=1;" parent="1" edge="1">
                    <mxGeometry width="50" height="50" relative="1" as="geometry">
                        <mxPoint x="210" y="724.5" as="sourcePoint"/>
                        <mxPoint x="320" y="725" as="targetPoint"/>
                    </mxGeometry>
                </mxCell>
                <mxCell id="43" value="" style="endArrow=classic;html=1;" parent="1" edge="1">
                    <mxGeometry width="50" height="50" relative="1" as="geometry">
                        <mxPoint x="210" y="798" as="sourcePoint"/>
                        <mxPoint x="320" y="798.5" as="targetPoint"/>
                    </mxGeometry>
                </mxCell>
                <mxCell id="44" value="" style="endArrow=classic;html=1;" parent="1" edge="1">
                    <mxGeometry width="50" height="50" relative="1" as="geometry">
                        <mxPoint x="210" y="864.5" as="sourcePoint"/>
                        <mxPoint x="320" y="865" as="targetPoint"/>
                    </mxGeometry>
                </mxCell>
                <mxCell id="45" value="Cannot process request due to client error. Commonly used for invalid request methods." style="rounded=1;whiteSpace=wrap;html=1;" parent="1" vertex="1">
                    <mxGeometry x="325" y="700" width="490" height="50" as="geometry"/>
                </mxCell>
                <mxCell id="46" value="Client does not have valid authentication for target resource." style="rounded=1;whiteSpace=wrap;html=1;" parent="1" vertex="1">
                    <mxGeometry x="325" y="770" width="490" height="50" as="geometry"/>
                </mxCell>
                <mxCell id="47" value="The clients requested resource can not be found" style="rounded=1;whiteSpace=wrap;html=1;" parent="1" vertex="1">
                    <mxGeometry x="325" y="840" width="490" height="50" as="geometry"/>
                </mxCell>
                <mxCell id="48" value="4xx Client Errors Status Codes:" style="text;html=1;align=center;verticalAlign=middle;resizable=0;points=[];autosize=1;strokeColor=none;fillColor=none;" parent="1" vertex="1">
                    <mxGeometry x="70" y="680" width="190" height="30" as="geometry"/>
                </mxCell>
                <mxCell id="49" value="422: Unprocessable Entity" style="rounded=1;whiteSpace=wrap;html=1;" parent="1" vertex="1">
                    <mxGeometry x="80" y="920" width="120" height="40" as="geometry"/>
                </mxCell>
                <mxCell id="50" value="" style="endArrow=classic;html=1;" parent="1" edge="1">
                    <mxGeometry width="50" height="50" relative="1" as="geometry">
                        <mxPoint x="210" y="934.5" as="sourcePoint"/>
                        <mxPoint x="320" y="935" as="targetPoint"/>
                    </mxGeometry>
                </mxCell>
                <mxCell id="51" value="Semantic Errors in Client Request" style="rounded=1;whiteSpace=wrap;html=1;" parent="1" vertex="1">
                    <mxGeometry x="325" y="910" width="490" height="50" as="geometry"/>
                </mxCell>
                <mxCell id="52" value="500: Internal Server Error" style="rounded=1;whiteSpace=wrap;html=1;" parent="1" vertex="1">
                    <mxGeometry x="80" y="1040" width="120" height="40" as="geometry"/>
                </mxCell>
                <mxCell id="53" value="" style="endArrow=classic;html=1;" parent="1" edge="1">
                    <mxGeometry width="50" height="50" relative="1" as="geometry">
                        <mxPoint x="210" y="1054.5" as="sourcePoint"/>
                        <mxPoint x="320" y="1055" as="targetPoint"/>
                    </mxGeometry>
                </mxCell>
                <mxCell id="54" value="Semantic Errors in Client Request" style="rounded=1;whiteSpace=wrap;html=1;" parent="1" vertex="1">
                    <mxGeometry x="325" y="1030" width="490" height="50" as="geometry"/>
                </mxCell>
                <mxCell id="55" value="5xx Server Status Codes:" style="text;html=1;align=center;verticalAlign=middle;resizable=0;points=[];autosize=1;strokeColor=none;fillColor=none;" parent="1" vertex="1">
                    <mxGeometry x="70" y="1010" width="160" height="30" as="geometry"/>
                </mxCell>
            </root>
        </mxGraphModel>
    </diagram>
</mxfile>